<svg xmlns="http://www.w3.org/2000/svg" width="160" height="48" fill="none">
  <path fill="#fff" fill-rule="evenodd" d="M5 2a3 3 0 0 0-3 3v10H1a1 1 0 0 1-1-1V5a5 5 0 0 1 5-5h9a1 1 0 0 1 1 1v1H5Zm153 3a3 3 0 0 0-3-3h-10V1a1 1 0 0 1 1-1h9a5 5 0 0 1 5 5v9a1 1 0 0 1-1 1h-1V5Zm-3 41a3 3 0 0 0 3-3V33h1a1 1 0 0 1 1 1v9a5 5 0 0 1-5 5h-9a1 1 0 0 1-1-1v-1h10ZM2 43a3 3 0 0 0 3 3h10v1a1 1 0 0 1-1 1H5a5 5 0 0 1-5-5v-9a1 1 0 0 1 1-1h1v10Z" clip-rule="evenodd"/>
  <path fill="#fff" d="M72 1a1 1 0 0 1 1-1h14a1 1 0 0 1 1 1v1H72V1Zm16 46a1 1 0 0 1-1 1H73a1 1 0 0 1-1-1v-1h16v1ZM32.21 13c.648 0 1.204.103 1.67.31.474.2.834.493 1.08.88.248.38.37.837.37 1.37 0 .52-.122.967-.37 1.34-.246.367-.606.65-1.08.85-.466.193-1.023.29-1.67.29h-3.9V21h-1.88v-8h5.78Zm0 3.48c.374 0 .667-.083.88-.25.214-.167.32-.397.32-.69 0-.293-.106-.523-.32-.69-.213-.167-.506-.25-.88-.25h-3.9v1.88h3.9ZM40.224 13v8h-1.88v-8h1.88Zm-.02 3.48h4.06c.373 0 .667-.083.88-.25.213-.167.32-.397.32-.69 0-.293-.107-.523-.32-.69-.213-.167-.507-.25-.88-.25h-4.06V13h4.36c.587 0 1.09.103 1.51.31.427.2.75.493.97.88.227.38.34.837.34 1.37 0 .46-.12.87-.36 1.23-.233.353-.563.63-.99.83-.427.2-.917.3-1.47.3h-4.36v-1.44Zm2.21 1.14h2.17l2.9 3.38h-2.28l-2.79-3.38ZM55.56 21.2c-1.166 0-2.163-.163-2.99-.49-.82-.327-1.443-.803-1.87-1.43-.427-.627-.64-1.387-.64-2.28 0-.893.213-1.653.64-2.28.427-.627 1.05-1.103 1.87-1.43.827-.327 1.824-.49 2.99-.49 1.167 0 2.16.163 2.98.49.827.327 1.453.803 1.88 1.43.427.627.64 1.387.64 2.28 0 .893-.213 1.653-.64 2.28-.427.627-1.053 1.103-1.88 1.43-.82.327-1.813.49-2.98.49Zm0-1.6c.787 0 1.444-.097 1.97-.29.533-.193.934-.483 1.2-.87.274-.387.41-.867.41-1.44s-.136-1.053-.41-1.44c-.266-.387-.666-.677-1.2-.87-.526-.193-1.183-.29-1.97-.29-.787 0-1.447.097-1.98.29-.526.193-.926.483-1.2.87-.267.387-.4.867-.4 1.44s.134 1.053.4 1.44c.273.387.673.677 1.2.87.534.193 1.194.29 1.98.29Zm13.785 1.6c-1.147 0-2.123-.163-2.93-.49-.807-.327-1.42-.803-1.84-1.43-.42-.627-.63-1.387-.63-2.28 0-.893.21-1.653.63-2.28.426-.627 1.046-1.103 1.86-1.43.813-.327 1.796-.49 2.95-.49 1.087 0 2.016.13 2.79.39.78.26 1.38.643 1.8 1.15.427.5.657 1.107.69 1.82h-1.86c-.12-.58-.47-1.017-1.05-1.31-.573-.3-1.364-.45-2.37-.45-.773 0-1.424.097-1.95.29-.52.193-.913.483-1.18.87-.26.387-.39.867-.39 1.44s.13 1.053.39 1.44.647.677 1.16.87c.52.193 1.163.29 1.93.29.94 0 1.686-.14 2.24-.42.56-.28.913-.693 1.06-1.24h1.86c-.06.693-.303 1.283-.73 1.77-.42.487-1.007.857-1.76 1.11-.747.253-1.637.38-2.67.38ZM79.69 13v8h-1.88v-8h1.88Zm6.32 0v1.6h-6.34V13h6.34Zm-.54 3.28v1.52h-5.8v-1.52h5.8Zm.44 3.12V21h-6.24v-1.6h6.24Zm5.031-.84c.094.373.35.647.77.82.427.173 1.064.26 1.91.26.667 0 1.194-.03 1.58-.09.387-.067.667-.17.84-.31a.683.683 0 0 0 .26-.56c0-.22-.11-.38-.33-.48-.213-.107-.59-.173-1.13-.2l-2.76-.16c-1.013-.06-1.776-.29-2.29-.69-.513-.4-.77-.97-.77-1.71 0-.62.16-1.123.48-1.51.32-.387.817-.67 1.49-.85.68-.187 1.557-.28 2.63-.28 1.074 0 1.95.1 2.63.3.687.2 1.2.507 1.54.92.34.413.53.953.57 1.62h-1.9c-.106-.447-.386-.77-.84-.97-.446-.207-1.113-.31-2-.31-.673 0-1.206.033-1.6.1-.386.06-.666.163-.84.31a.694.694 0 0 0-.26.57c0 .227.107.393.32.5.22.1.6.163 1.14.19l2.76.16c1.014.06 1.777.29 2.29.69.514.4.77.967.77 1.7 0 .613-.16 1.113-.48 1.5-.32.38-.816.663-1.49.85-.673.18-1.543.27-2.61.27-1.06 0-1.93-.09-2.61-.27-.673-.187-1.18-.473-1.52-.86-.34-.387-.53-.89-.57-1.51h2.02Zm12.157 0c.093.373.35.647.77.82.426.173 1.063.26 1.91.26.666 0 1.193-.03 1.58-.09.386-.067.666-.17.84-.31a.684.684 0 0 0 .26-.56c0-.22-.11-.38-.33-.48-.214-.107-.59-.173-1.13-.2l-2.76-.16c-1.014-.06-1.777-.29-2.29-.69-.514-.4-.77-.97-.77-1.71 0-.62.16-1.123.48-1.51.32-.387.816-.67 1.49-.85.68-.187 1.556-.28 2.63-.28 1.073 0 1.95.1 2.63.3.686.2 1.2.507 1.54.92.34.413.53.953.57 1.62h-1.9c-.107-.447-.387-.77-.84-.97-.447-.207-1.114-.31-2-.31-.674 0-1.207.033-1.6.1-.387.06-.667.163-.84.31a.692.692 0 0 0-.26.57c0 .227.106.393.32.5.22.1.6.163 1.14.19l2.76.16c1.013.06 1.776.29 2.29.69.513.4.77.967.77 1.7 0 .613-.16 1.113-.48 1.5-.32.38-.817.663-1.49.85-.674.18-1.544.27-2.61.27-1.06 0-1.93-.09-2.61-.27-.674-.187-1.18-.473-1.52-.86-.34-.387-.53-.89-.57-1.51h2.02ZM115.514 13v8h-1.88v-8h1.88Zm6.32 0v1.6h-6.34V13h6.34Zm-.54 3.28v1.52h-5.8v-1.52h5.8Zm.44 3.12V21h-6.24v-1.6h6.24Zm5.292-6.4v8h-1.88v-8h1.88Zm-.02 0h3.26c1 0 1.85.157 2.55.47.706.307 1.24.76 1.6 1.36.366.6.55 1.323.55 2.17s-.184 1.57-.55 2.17c-.36.6-.894 1.057-1.6 1.37-.7.307-1.55.46-2.55.46h-3.26v-1.62h3.26c.606 0 1.116-.09 1.53-.27.413-.18.723-.447.93-.8.213-.353.32-.79.32-1.31s-.107-.957-.32-1.31a1.936 1.936 0 0 0-.93-.8c-.414-.18-.924-.27-1.53-.27h-3.26V13ZM22.194 27v8h-1.88v-8h1.88Zm3.76 0c.966 0 1.71.19 2.23.57.526.373.79.91.79 1.61 0 .387-.114.713-.34.98-.227.26-.547.447-.96.56v.16c.48.113.85.333 1.11.66.26.327.39.733.39 1.22 0 .713-.274 1.267-.82 1.66-.54.387-1.314.58-2.32.58h-3.86v-1.6h3.82c.42 0 .736-.07.95-.21.22-.147.33-.363.33-.65 0-.287-.11-.5-.33-.64-.214-.147-.53-.22-.95-.22h-3.82V30.2h3.74c.42 0 .736-.067.95-.2a.656.656 0 0 0 .33-.6.656.656 0 0 0-.33-.6c-.214-.133-.53-.2-.95-.2h-3.74V27h3.78Zm10.908 3.58h-.38l3.04-3.58h2.16l-4.16 4.87V35h-1.88v-3.13L31.482 27h2.34l3.04 3.58Zm11.9-3.58v8h-1.88v-8h1.88Zm5.464 0 .08 3.12V35h-1.86v-8h1.78Zm5.06 7.52h-.65l3.5-7.52h1.83l-3.72 8h-2.72l-3.72-8h1.98l3.5 7.52Zm6.04.48h-1.86v-4.88l.08-3.12h1.78v8Zm8.321.2c-1.073 0-1.987-.163-2.74-.49-.753-.327-1.327-.803-1.72-1.43-.387-.627-.58-1.387-.58-2.28 0-.893.21-1.653.63-2.28.427-.627 1.047-1.103 1.86-1.43.813-.327 1.797-.49 2.95-.49 1.08 0 2.007.13 2.78.39.78.26 1.38.643 1.8 1.15.427.5.66 1.107.7 1.82h-1.86c-.12-.58-.47-1.017-1.05-1.31-.573-.3-1.363-.45-2.37-.45-.773 0-1.423.097-1.95.29-.52.193-.913.483-1.18.87-.26.387-.39.867-.39 1.44 0 .587.13 1.073.39 1.46s.65.677 1.17.87c.52.193 1.173.29 1.96.29.547 0 1.047-.05 1.5-.15a4.16 4.16 0 0 0 1.17-.45c.327-.193.57-.427.73-.7h-4.12v-1.6h5.84V35h-1.72v-.9h-.2c-.327.353-.803.627-1.43.82-.62.187-1.343.28-2.17.28ZM88.506 27c.646 0 1.203.103 1.67.31.473.2.833.493 1.08.88.246.38.37.837.37 1.37 0 .52-.124.967-.37 1.34-.247.367-.607.65-1.08.85-.467.193-1.024.29-1.67.29h-3.9V35h-1.88v-8h5.78Zm0 3.48c.373 0 .666-.083.88-.25.213-.167.32-.397.32-.69 0-.293-.107-.523-.32-.69-.214-.167-.507-.25-.88-.25h-3.9v1.88h3.9ZM96.518 27v8h-1.88v-8h1.88Zm-.02 3.48h4.06c.373 0 .667-.083.88-.25.213-.167.32-.397.32-.69 0-.293-.107-.523-.32-.69-.213-.167-.507-.25-.88-.25h-4.06V27h4.36c.587 0 1.09.103 1.51.31.427.2.75.493.97.88.227.38.34.837.34 1.37 0 .46-.12.87-.36 1.23-.233.353-.563.63-.99.83-.427.2-.917.3-1.47.3h-4.36v-1.44Zm2.21 1.14h2.17l2.9 3.38h-2.28l-2.79-3.38Zm13.147 3.58c-1.167 0-2.163-.163-2.99-.49-.82-.327-1.443-.803-1.87-1.43-.427-.627-.64-1.387-.64-2.28 0-.893.213-1.653.64-2.28.427-.627 1.05-1.103 1.87-1.43.827-.327 1.823-.49 2.99-.49 1.167 0 2.16.163 2.98.49.827.327 1.453.803 1.88 1.43.427.627.64 1.387.64 2.28 0 .893-.213 1.653-.64 2.28-.427.627-1.053 1.103-1.88 1.43-.82.327-1.813.49-2.98.49Zm0-1.6c.787 0 1.443-.097 1.97-.29.533-.193.933-.483 1.2-.87.273-.387.41-.867.41-1.44s-.137-1.053-.41-1.44c-.267-.387-.667-.677-1.2-.87-.527-.193-1.183-.29-1.97-.29-.787 0-1.447.097-1.98.29-.527.193-.927.483-1.2.87-.267.387-.4.867-.4 1.44s.133 1.053.4 1.44c.273.387.673.677 1.2.87.533.193 1.193.29 1.98.29Zm12.971-2.48-3.23 3.88h-2.19l3.18-3.82-3.4-4.18h2.29l3.35 4.12Zm4.5-4.12-3.4 4.05 3.18 3.95h-2.34l-3.08-3.84 3.5-4.16h2.14Zm7.423 3.58h-.38l3.04-3.58h2.16l-4.16 4.87V35h-1.88v-3.13l-4.16-4.87h2.34l3.04 3.58Z"/>
</svg>
